<svg version="1.2" xmlns="http://www.w3.org/2000/svg" viewBox="0 0 714 720" width="714" height="720">
	<title>New Project</title>
	<style>
		.s0 { fill: #ffffff } 
		.s1 { opacity: .2;fill: #ffffff } 
		.s2 { opacity: .4;fill: #ffffff } 
		.s3 { opacity: .5;fill: #ffffff } 
	</style>
	<path id="Shape 1 copy 4" class="s0" d="m555.4-130.5l165.7 80c10 4.7 14.1 16.7 9.3 26.7l-105.1 217.9c-4.8 10-16.7 14.2-26.7 9.4l-165.7-80c-10-4.8-14.1-16.7-9.3-26.7l105.1-217.9c4.8-10 16.7-14.2 26.7-9.4z"/>
	<path id="Shape 1" class="s1" d="m246 33.7l155.3 98.6c9.3 5.9 12.1 18.3 6.1 27.6l-129.7 204.3c-5.9 9.3-18.3 12.1-27.6 6.1l-155.3-98.6c-9.4-5.9-12.1-18.3-6.2-27.6l129.8-204.3c5.9-9.3 18.2-12.1 27.6-6.1z"/>
	<path id="Shape 1 copy 6" class="s1" d="m795-88.3l155.3 98.6c9.3 5.9 12.1 18.3 6.1 27.6l-129.7 204.3c-5.9 9.3-18.3 12.1-27.6 6.1l-155.3-98.6c-9.4-5.9-12.1-18.3-6.2-27.6l129.8-204.3c5.9-9.3 18.2-12.1 27.6-6.1z"/>
	<path id="Shape 1 copy 5" class="s2" d="m199-213.3l155.3 98.6c9.3 5.9 12.1 18.3 6.1 27.6l-129.7 204.3c-5.9 9.3-18.3 12.1-27.6 6.1l-155.3-98.6c-9.4-5.9-12.1-18.3-6.2-27.6l129.8-204.3c5.9-9.3 18.2-12.1 27.6-6.1z"/>
	<path id="Shape 1 copy 3" class="s3" d="m409 289.3l158.7 93.2c9.5 5.6 12.7 17.8 7.1 27.4l-122.5 208.6c-5.6 9.6-17.8 12.8-27.3 7.2l-158.7-93.2c-9.5-5.6-12.7-17.8-7.1-27.4l122.5-208.6c5.6-9.6 17.8-12.8 27.3-7.2z"/>
	<path id="Shape 1 copy" class="s0" d="m619 236.3l158.7 93.2c9.5 5.6 12.7 17.8 7.1 27.4l-122.5 208.6c-5.6 9.6-17.8 12.8-27.3 7.2l-158.7-93.2c-9.5-5.6-12.7-17.8-7.1-27.4l122.5-208.6c5.6-9.6 17.8-12.8 27.3-7.2z"/>
	<path id="Shape 1 copy 2" class="s1" d="m598 593.3l158.7 93.2c9.5 5.6 12.7 17.8 7.1 27.4l-122.5 208.6c-5.6 9.6-17.8 12.8-27.3 7.2l-158.7-93.2c-9.5-5.6-12.7-17.8-7.1-27.4l122.5-208.6c5.6-9.6 17.8-12.8 27.3-7.2z"/>
</svg>